<svg xmlns="http://www.w3.org/2000/svg" viewBox="48 48 299 328" role="img" aria-labelledby="title desc">
  <title id="title">Rondine</title>
  <desc id="desc">A stylized swallow in flight</desc>
  <style>
    path { fill: #111827; }
    @media (prefers-color-scheme: dark) { path { fill: #fff; } }
  </style>
  <path d="M56,56 56,62 58,68 70,91 80,103 98,118 138,140 167,151 186,160 191,161 186,157 188,155 209,167 224,180 234,196 238,211 238,226 235,233 235,241 239,242 242,241 245,238 248,231 255,222 259,214 265,207 273,200 285,193 300,192 306,194 316,202 316,204 310,208 298,221 279,255 277,253 279,250 280,244 261,265 250,273 240,278 225,283 220,283 193,290 182,296 165,301 164,299 176,287 179,281 197,270 208,259 215,246 216,222 213,212 207,202 195,189 185,186 176,177 160,169 140,163 127,157 124,157 100,146 91,140 68,120 62,112 57,108 57,111 69,136 76,146 92,162 116,176 144,186 163,191 171,195 184,205 188,211 192,222 192,229 190,230 184,224 175,219 164,216 140,214 124,207 126,211 133,218 144,225 157,230 170,233 177,237 183,244 184,252 180,260 173,268 151,283 110,303 76,316 77,318 74,319 75,320 108,312 142,300 145,301 128,319 88,350 76,362 73,368 111,342 153,320 181,310 220,302 228,298 232,298 240,295 242,296 240,299 259,292 279,277 288,267 313,222 326,210 339,205 334,201 323,197 314,186 303,181 283,181 268,187 252,199 249,199 247,197 243,184 237,174 225,161 216,154 198,143 165,129 141,121 105,102 81,84Z M165,179 167,178 171,180 176,180 181,187 179,188 166,181Z" fill-rule="evenodd"/>
</svg>
